<?xml version="1.0" standalone="no"?>
<!DOCTYPE svg PUBLIC "-//W3C//DTD SVG 20010904//EN"
 "http://www.w3.org/TR/2001/REC-SVG-20010904/DTD/svg10.dtd">
<svg version="1.0" xmlns="http://www.w3.org/2000/svg"
 width="317.000000pt" height="317.000000pt" viewBox="0 0 317.000000 317.000000"
 preserveAspectRatio="xMidYMid meet">
<metadata>
Created by potrace 1.14, written by Peter Selinger 2001-2017
</metadata>
<g transform="translate(0.000000,317.000000) scale(0.100000,-0.100000)"
fill="#000000" stroke="none">
<path d="M1894 2929 c-34 -6 -164 -63 -164 -72 0 -1 40 -2 88 -2 78 0 93 -3
125 -25 54 -37 100 -116 147 -255 24 -69 45 -124 47 -122 5 6 3 227 -2 267
-15 103 -67 189 -128 209 -34 11 -48 11 -113 0z"/>
<path d="M1172 2870 c-191 -53 -279 -199 -248 -412 3 -26 11 -58 16 -70 8 -21
9 -21 10 -3 5 70 41 165 85 225 48 65 110 107 199 136 174 55 450 -1 674 -137
l63 -38 -22 30 c-28 39 -121 117 -196 162 -180 109 -416 153 -581 107z"/>
<path d="M1442 2707 c-77 -29 -128 -115 -103 -177 33 -85 94 -95 330 -54 93
16 112 24 60 25 -60 1 -156 13 -206 25 -58 14 -113 52 -113 79 0 25 35 56 75
66 49 11 158 2 182 -16 17 -13 17 -14 -1 -34 -23 -25 -16 -27 25 -5 43 22 34
44 -29 75 -61 30 -163 37 -220 16z"/>
<path d="M2263 2584 c-23 -11 -42 -37 -73 -96 -55 -106 -75 -138 -147 -228
-101 -126 -198 -221 -453 -440 -206 -177 -227 -197 -275 -270 -139 -209 -120
-380 49 -455 28 -12 76 -26 106 -30 57 -8 249 -9 286 -1 12 2 45 7 75 11 87
11 275 62 331 89 38 19 44 24 23 20 -16 -3 -39 -8 -50 -10 -11 -2 -54 -10 -95
-18 -45 -8 -125 -13 -200 -12 -148 2 -212 21 -299 89 -78 60 -116 125 -116
197 0 91 36 139 325 430 263 263 377 399 444 527 40 76 97 140 130 148 46 11
72 12 95 3 21 -8 22 -7 11 7 -36 43 -120 63 -167 39z"/>
<path d="M1111 2571 c-36 -10 -64 -54 -66 -103 -2 -38 26 -183 38 -194 2 -3 5
16 5 41 2 105 42 111 225 31 51 -22 47 -12 -5 14 -58 29 -135 85 -147 108 -16
31 12 58 80 78 52 16 58 20 38 25 -31 9 -137 9 -168 0z"/>
<path d="M810 2505 c-239 -48 -323 -174 -234 -352 111 -220 368 -383 705 -448
l74 -14 -36 32 c-19 18 -91 75 -160 127 -164 125 -355 315 -396 395 -38 73
-46 118 -28 161 15 35 87 94 116 94 10 0 21 5 24 10 3 6 5 10 3 9 -2 0 -32 -7
-68 -14z"/>
<path d="M1855 2498 c-74 -24 -160 -67 -291 -144 -189 -112 -300 -154 -417
-155 -85 0 -130 13 -173 53 -18 16 -22 17 -27 4 -11 -28 3 -80 28 -105 21 -22
34 -25 92 -26 155 0 236 29 505 182 272 155 387 188 481 140 26 -13 47 -23 47
-22 0 10 -52 56 -77 69 -36 18 -121 20 -168 4z"/>
<path d="M2250 2394 c-19 -55 -5 -134 45 -258 65 -164 84 -248 89 -416 3 -67
0 -103 -19 -246 -2 -23 -16 -79 -29 -125 l-24 -84 24 30 c113 137 165 316 139
480 -12 73 -66 219 -109 295 -77 134 -93 164 -100 195 -16 59 -18 96 -7 127 6
17 9 33 7 35 -2 3 -10 -12 -16 -33z"/>
<path d="M936 1689 c51 -270 166 -487 283 -536 18 -8 35 -12 37 -10 2 2 -11
24 -30 48 -110 144 -218 345 -267 496 -13 40 -27 73 -30 73 -4 0 -1 -32 7 -71z"/>
<path d="M2275 1171 c-13 -12 -109 -67 -157 -89 -21 -9 -38 -20 -38 -23 0 -4
14 -12 30 -19 63 -26 75 -105 31 -192 l-23 -43 42 40 c50 48 104 158 120 241
13 67 11 101 -5 85z"/>
<path d="M1436 990 c31 -56 86 -116 115 -123 22 -6 25 6 5 23 -21 16 -24 49
-10 92 l13 36 -37 -2 c-20 -2 -52 3 -71 11 -18 7 -35 13 -38 13 -2 0 8 -22 23
-50z"/>
<path d="M1839 1019 c-134 -11 -198 -51 -213 -133 -3 -19 7 -58 29 -112 67
-167 81 -280 60 -484 -14 -130 -11 -200 9 -238 10 -19 19 -32 21 -30 1 1 -2
27 -8 56 -16 75 -1 134 79 309 102 226 123 301 149 539 3 28 7 60 9 71 6 27
-19 30 -135 22z"/>
</g>
</svg>
