<!-- Svg Vector Icons : http://www.onlinewebfonts.com/icon -->
<svg width="60" height="60" viewBox="0 0 1000 1000" preserveAspectRatio="xMidYMid meet" fill="current">
<metadata> Icon made from http://www.onlinewebfonts.com/icon Icon Fonts is licensed by CC BY 3.0 </metadata>
<g><path d="M742,590.5c-87.3,21.1-177,37-235.2-12.9c-35-30-42.8-58.4-34.2-82.9c24.3-69.1,198.3-184.6,257.5-305.2c18.1-36.8,42.3-59.5,83.3-43.4c-30.6-29.2-66.2-30.6-80.9,2.8C686.6,253.5,586.9,333,475.2,426.7c-67.2,56.5-125.8,187.8,15,208.1C574.2,646.9,696.5,617.3,742,590.5"/><path d="M798.1,324.4c-16.4-36.3-51-76.3-51.1-116.7c0-12.2,3.4-24.2,12.4-35.2c-10.8,9.6-15.5,21-16.4,32.9c-3,37.2,27.5,83.8,36.8,121.7c17.5,71.6,18.8,150.2-13.5,242.5C838.8,486.3,835.5,406.7,798.1,324.4"/><path d="M295.3,150.6c-116.5,11.4-155.5,69-82,159.9c55.2,68.1,148.7,105.1,236.3,114.2C375,365.2,126.3,196.8,295.3,150.6"/><path d="M418.5,610c-50.5-61.3-93-136.8-114.6-219.3C308,469.1,354.3,604.6,418.5,610"/><path d="M383.3,279.8c97-17.3,159.9-89.3,247-110.7c25.1-6.1,49.8-2.9,70.8,19.5c-18.7-34.6-45.4-41.3-74.1-34.8c-88.6,19.8-144.9,97.1-244.5,103.4c-29.6,1.9-54.6-4.7-69.9-24.8C301.2,279.3,334.6,288.4,383.3,279.8"/><path d="M655.7,133.4c-110.9-146.9-410.2-161-344.3,69.1C333.4,7.9,545.1,55.7,655.7,133.4"/><path d="M433.4,134.5C321.8,110.5,335,167,364.9,254.8c-28.2-105.6,37.2-58.6,94.4-36.8C403.2,186.6,329.4,154.6,433.4,134.5"/><path d="M542.9,124.1c48.3-13.3,23.9-29.2-9.3-38.3c-31.6-8.7-61.8-3.1-81.5,18.1c-25.7,27.7-8.3,70.7,31.4,68.9c29-1.4,67.7-7.8,110.6-16.4c-59-0.6-107-7.8-122.2-24.4c-15.3-16.5,2-42.3,62.1-33.5C555.5,101.7,566.6,108,542.9,124.1"/><path d="M708.7,174.8c7.4-94.9,2.1-227.7-146.8-131.2C674.1,7.4,679.8,102.5,708.7,174.8"/><path d="M537.1,705.6c15,36.8,33,74.1,34.5,117.4c0.9,25.8-1.9,51.5-4.5,77.2c-3.4,34.4-10.1,62.7,16,89.7c-14.1-32.5-13.1-58.4,0.5-89.7c17.5-40.2,39-78.9,51.3-120.9c12.4-42.1,13.8-86.9,20.7-130.2C595.9,647.7,537.9,648.2,537.1,705.6"/><path d="M516.4,649.7c-15.9,4.2-33.4,1.5-52.4-8.1c16,24,25.2,55.7,59.3,62.1C502.1,683.1,505.9,671.3,516.4,649.7"/><path d="M699.4,724.6c46.2-36.4,60.5-89.6,61-129c-22,15.6-47.1,29-73.7,41.4C735.9,648.9,721.7,696.1,699.4,724.6"/></g>
</svg>